<?xml version="1.0" standalone="no"?>
<!DOCTYPE svg PUBLIC "-//W3C//DTD SVG 20010904//EN"
 "http://www.w3.org/TR/2001/REC-SVG-20010904/DTD/svg10.dtd">
<svg version="1.0" xmlns="http://www.w3.org/2000/svg"
 width="500.000000pt" height="500.000000pt" viewBox="0 0 500.000000 500.000000"
 preserveAspectRatio="xMidYMid meet">
<metadata>
Created by potrace 1.11, written by Peter Selinger 2001-2013
</metadata>
<g transform="translate(0.000000,500.000000) scale(0.100000,-0.100000)"
fill="#000000" stroke="none">
<path d="M2309 4986 c-2 -2 -33 -6 -69 -10 -87 -8 -140 -15 -170 -21 -14 -3
-38 -8 -55 -11 -169 -29 -441 -123 -629 -218 -664 -336 -1142 -939 -1310
-1656 -30 -129 -31 -135 -56 -335 -9 -74 -5 -458 5 -535 14 -99 66 -341 90
-421 161 -519 487 -977 915 -1288 103 -74 101 -73 126 -88 280 -175 615 -307
896 -353 35 -5 74 -12 88 -15 97 -20 513 -27 635 -11 33 4 76 10 95 12 19 2
69 11 110 20 406 83 767 252 1094 514 305 244 598 643 735 1000 18 47 37 94
41 105 25 59 82 268 95 345 6 39 16 95 21 124 13 72 19 188 19 356 0 255 -5
306 -57 550 -73 343 -239 691 -475 995 -75 97 -257 286 -338 350 -27 22 -52
42 -55 45 -34 37 -256 187 -362 243 -37 20 -75 41 -85 46 -170 95 -524 206
-758 237 -27 3 -61 8 -75 11 -32 5 -466 14 -471 9z"/>
</g>
</svg>
